<?xml version="1.0" standalone="no"?>
<!DOCTYPE svg PUBLIC "-//W3C//DTD SVG 1.1//EN" "http://www.w3.org/Graphics/SVG/1.1/DTD/svg11.dtd" >
<svg>
<metadata>
Created by FontForge 20110222 at Mon Apr 28 01:08:49 2014
 By Orthosie Webhosting
Thi't k' bi Michael inh Kie^n - "In God We Trust - Free for everyone" Email: fontchudepc@gmail.com; www.fontchudep.com
</metadata>
<defs>
<font id="UTMTallingBold" horiz-adv-x="634" >
  <font-face 
    font-family="UTMTallingBold"
    font-weight="700"
    font-stretch="normal"
    units-per-em="2048"
    panose-1="2 4 6 3 5 5 6 2 2 4"
    ascent="1638"
    descent="-410"
    x-height="1184"
    cap-height="1481"
    bbox="-108 -346 2048 1767"
    underline-thickness="109"
    underline-position="-143"
    unicode-range="U+000D-25FC"
  />
<missing-glyph horiz-adv-x="748" 
d="M68 0v1365h544v-1365h-544zM136 68h408v1229h-408v-1229z" />
    <glyph glyph-name=".notdef" horiz-adv-x="748" 
d="M68 0v1365h544v-1365h-544zM136 68h408v1229h-408v-1229z" />
    <glyph glyph-name="glyph1" horiz-adv-x="2048" 
 />
    <glyph glyph-name="glyph1" horiz-adv-x="2048" 
 />
    <glyph glyph-name="uni000D" unicode="&#xd;" horiz-adv-x="571" 
 />
    <glyph glyph-name="space" unicode=" " horiz-adv-x="317" 
 />
    <glyph glyph-name="exclam" unicode="!" horiz-adv-x="368" 
d="M0 1475q0 6 6 6h291q6 0 6 -6l-39 -1162q0 -6 -6 -6h-211l-3 2q-3 2 -3 4zM18 4v238q0 6 5 6h258q4 0 4 -6v-238q0 -4 -4 -4h-258q-5 0 -5 4z" />
    <glyph glyph-name="quotedbl" unicode="&#x22;" horiz-adv-x="307" 
d="M0 1118v359q0 4 4 4h100q7 0 7 -4v-207q0 -72 -43 -117q-34 -37 -68 -35zM133 1118v359q0 4 4 4h101q4 0 4 -4v-207q0 -72 -42 -117q-34 -37 -67 -35z" />
    <glyph glyph-name="numbersign" unicode="#" horiz-adv-x="1042" 
d="M0 485l35 179h176l31 159h-174l34 178h174l78 381h178l-75 -381h157l78 381h178l-75 -381h174l-37 -178h-174l-31 -159h174l-37 -179h-174l-76 -383h-178l76 383h-160l-76 -383h-178l76 383h-174zM389 664h158l33 159h-160z" />
    <glyph glyph-name="dollar" unicode="$" horiz-adv-x="724" 
d="M0 0v514h281v-231h90v319h-371v696q0 76 54 129q54 54 130 54h52v108h180v-108h235v-508h-280v229h-90v-319h370v-697q0 -76 -54 -131q-55 -55 -130 -55h-51v-102h-180v102h-236z" />
    <glyph glyph-name="percent" unicode="%" horiz-adv-x="858" 
d="M0 719v639q0 121 115 121h147q127 0 127 -121v-510l219 631h80l-207 -600l14 3l162 1q127 0 127 -121v-637q0 -125 -127 -125h-149q-115 4 -115 123v508l-217 -631h-80l209 606q-18 -6 -43 -6h-147q-115 0 -115 119zM168 766h53v547h-53v-547zM561 170h53v547h-53v-547z
" />
    <glyph glyph-name="ampersand" unicode="&#x26;" horiz-adv-x="780" 
d="M0 205v377q0 53 26 103q31 58 85 81q-60 24 -89 79q-22 44 -22 99v332q0 85 62 145t147 60h424v-508h-281v225h-41q-10 0 -21 -13q-11 -12 -11 -22v-219q0 -54 36 -57h19v-244h-19q-34 0 -34 -49v-313h90v606h336v-244h-56v-440q0 -84 -58 -144q-58 -59 -134 -59h-250
q-86 0 -147 59q-62 59 -62 146z" />
    <glyph glyph-name="quotesingle" unicode="'" horiz-adv-x="124" 
d="M-4 1118v359q0 4 4 4h100q7 0 7 -4v-209q0 -70 -43 -115q-35 -37 -68 -35z" />
    <glyph glyph-name="parenleft" unicode="(" horiz-adv-x="303" 
d="M0 -2l1 1546q3 41 16 70q36 78 161 78h47v-119h-26q-9 0 -15 -10q-6 -9 -6 -19v-1605q0 -11 9 -21t20 -10h18v-119h-47q-178 0 -178 209z" />
    <glyph glyph-name="parenright" unicode=")" horiz-adv-x="303" 
d="M0 -88h18q11 0 20 10t9 21v1605q0 10 -6 19q-6 10 -14 10h-27v119h47q125 0 161 -77q14 -28 17 -69v-1548q0 -92 -34 -144q-44 -65 -142 -65h-49v119z" />
    <glyph glyph-name="asterisk" unicode="*" horiz-adv-x="829" 
 />
    <glyph glyph-name="plus" unicode="+" horiz-adv-x="942" 
d="M0 655v170h348v349h170v-349h348v-170h-348v-348h-170v348h-348z" />
    <glyph glyph-name="comma" unicode="," horiz-adv-x="215" 
d="M0 4v234q0 4 4 4h197q6 0 6 -4v-207q0 -71 -42 -116q-34 -36 -69 -36v121h-92q-4 0 -4 4z" />
    <glyph glyph-name="hyphen" unicode="-" horiz-adv-x="462" 
d="M0 590v235h391v-235h-391z" />
    <glyph glyph-name="period" unicode="." horiz-adv-x="215" 
d="M0 4v234q0 4 4 4h197q6 0 6 -4v-234q0 -4 -6 -4h-197q-4 0 -4 4z" />
    <glyph glyph-name="slash" unicode="/" horiz-adv-x="555" 
d="M0 2l395 1479h80l-395 -1479h-80z" />
    <glyph glyph-name="zero" unicode="0" horiz-adv-x="737" 
d="M0 203v1075q0 83 59 144q57 59 134 59h249q87 0 150 -59t63 -144v-1071q0 -86 -63 -147q-63 -60 -150 -60h-249q-77 0 -134 59q-59 60 -59 144zM283 281h88v919h-88v-919z" />
    <glyph glyph-name="one" unicode="1" horiz-adv-x="391" 
d="M-12 1200q15 59 27 160q10 86 10 121h280v-1481h-280v1200h-37z" />
    <glyph glyph-name="two" unicode="2" horiz-adv-x="729" 
d="M-12 0v231q0 85 36 162q13 29 34 63l288 439q25 37 25 86v219h-88v-254h-281v332q0 84 58 144q57 59 135 59h250q85 0 146 -59q63 -59 63 -144v-322q0 -99 -45 -170l-228 -335q-61 -93 -67 -172h342v-279h-668z" />
    <glyph glyph-name="three" unicode="3" horiz-adv-x="733" 
d="M6 203v342h283v-264h88v313q0 49 -33 49h-199v246h197q19 0 28 21q7 15 7 34v256h-88v-209h-283v287q0 83 59 144q57 59 134 59h251q86 0 147 -59q62 -59 62 -144v-336q0 -54 -22 -97q-28 -55 -88 -79q52 -21 83 -80q27 -51 27 -102v-379q0 -87 -62 -146
q-61 -59 -147 -59h-251q-77 0 -134 59q-59 60 -59 144z" />
    <glyph glyph-name="four" unicode="4" horiz-adv-x="727" 
d="M-24 256v299l182 926h443v-971h69v-256h-69v-254h-279v256h-346zM228 510h94v645z" />
    <glyph glyph-name="five" unicode="5" horiz-adv-x="724" 
d="M-6 205v307h285v-231h90v415q0 45 -44 45q-43 0 -46 -45l-6 -55h-277l35 840h584v-281h-332l-10 -237q28 28 69 28h103q93 -1 152 -67q52 -59 52 -133v-588q0 -83 -57 -143q-58 -60 -135 -60h-250q-86 0 -149 59q-64 61 -64 146z" />
    <glyph glyph-name="six" unicode="6" horiz-adv-x="743" 
d="M0 205v1069q0 85 63 146t148 61h252q76 0 133 -59q57 -61 57 -144v-295h-278v219h-90l-2 -293h168q92 0 151 -66q53 -60 53 -134v-506q0 -82 -58 -143q-58 -60 -134 -60h-252q-85 0 -148 59q-63 61 -63 146zM283 281h90v383h-90v-383z" />
    <glyph glyph-name="seven" unicode="7" horiz-adv-x="567" 
d="M-32 1200v281h567v-275q-123 -106 -169 -376q-46 -260 -46 -830h-327q1 423 80 760q79 331 198 440h-303z" />
    <glyph glyph-name="eight" unicode="8" horiz-adv-x="731" 
d="M0 203v379q0 52 27 103q32 60 86 81q-60 24 -90 79q-23 44 -23 97v336q0 82 59 143q58 60 136 60h249q86 0 148 -59q63 -59 63 -144v-336q0 -53 -23 -97q-29 -55 -89 -79q52 -21 84 -82q28 -52 28 -104v-371q0 -87 -63 -148q-62 -61 -148 -61h-249q-78 0 -136 59
q-59 60 -59 144zM281 281h92v362h-92v-362zM283 889h90v311h-90v-311z" />
    <glyph glyph-name="nine" unicode="9" horiz-adv-x="729" 
d="M0 727v551q0 82 59 143q57 60 134 60h251q86 0 148 -59q63 -59 63 -144v-1069q0 -87 -63 -148q-62 -61 -148 -61h-251q-77 0 -133 59q-58 60 -58 144v270h279l2 -192h88v247h-166q-92 0 -152 67q-53 59 -53 132zM283 772h88v428h-88v-428z" />
    <glyph glyph-name="colon" unicode=":" horiz-adv-x="284" 
d="M0 4v234q0 6 4 6h197q6 0 6 -6v-234q0 -4 -6 -4h-197q-4 0 -4 4zM0 307v234q0 4 4 4h197q6 0 6 -4v-234q0 -4 -6 -4h-197q-4 0 -4 4z" />
    <glyph glyph-name="semicolon" unicode=";" horiz-adv-x="284" 
d="M0 4v234q0 6 4 6h197q6 0 6 -6v-207q0 -71 -42 -116q-34 -36 -69 -36v121h-92q-4 0 -4 4zM0 307v234q0 4 4 4h197q6 0 6 -4v-234q0 -4 -6 -4h-197q-4 0 -4 4z" />
    <glyph glyph-name="less" unicode="&#x3c;" horiz-adv-x="727" 
d="M0 0v547q0 113 76 225q-76 116 -76 225v486h283v-563q0 -47 44 -47t44 47v563h282v-486q0 -116 -73 -225q73 -109 73 -225v-547h-282v571q0 46 -44 47q-44 0 -44 -45v-573h-283z" />
    <glyph glyph-name="equal" unicode="=" horiz-adv-x="942" 
d="M0 250v170h867v-170h-867zM0 655v170h866v-170h-866z" />
    <glyph glyph-name="greater" unicode="&#x3e;" horiz-adv-x="727" 
d="M0 0v1481h281v-467l90 467h282l-137 -598q137 -59 137 -224v-659h-282v586q0 58 -22 73q-15 11 -66 11v-670h-283z" />
    <glyph glyph-name="question" unicode="?" horiz-adv-x="733" 
d="M0 946v332q0 85 57 144q56 59 136 59h249q114 0 174 -90q20 -31 31 -68l8 -45v-457q0 -235 -288 -235v-248h-283v528h287v334h-90v-254h-281zM82 0v248h280v-248h-280z" />
    <glyph glyph-name="at" unicode="@" horiz-adv-x="997" 
d="M12 309l86 865q13 127 112 217t226 90h217q128 0 209 -90q82 -90 70 -217l-64 -648q-13 -127 -115 -220q-101 -93 -223 -93l-202 2q-60 0 -98 47q-36 45 -29 100l32 338q16 146 168 146h107l18 180q2 9 -4 16q-7 9 -18 9h-8l-17 -158h-207l37 367h297q150 0 135 -148
l-75 -770q-3 -34 28 -12q40 28 69 72q36 57 42 124l65 648q10 101 -55 173t-168 72h-217q-102 0 -181 -72q-80 -72 -89 -173l-86 -865q-11 -103 55 -175q65 -73 168 -73h217q164 0 242 152l57 -18q-97 -195 -305 -195h-219q-128 0 -208 90q-81 90 -69 219zM416 424h49
l24 240h-32q-11 0 -16 -9l-5 -20z" />
    <glyph glyph-name="A" unicode="A" horiz-adv-x="737" 
d="M0 0v1311q0 170 154 170h313q184 0 184 -170v-1311h-280v555h-90v-555h-281zM281 801h90v399h-90v-399z" />
    <glyph glyph-name="B" unicode="B" horiz-adv-x="731" 
d="M0 0v1481h467q77 0 131 -54q53 -54 53 -131v-378q0 -60 -46 -111q-45 -49 -99 -53q48 -5 95 -55q50 -52 50 -109v-426q0 -73 -57 -120q-53 -44 -127 -44h-467zM281 281h57q33 0 33 32v277q0 37 -37 37h-53v-346zM281 870h57q33 0 33 35v258q0 37 -37 37h-53v-330z" />
    <glyph glyph-name="C" unicode="C" horiz-adv-x="722" 
d="M0 184v1112q0 77 55 131q54 54 129 54h467v-545h-280v264h-45q-45 0 -45 -45v-829q0 -45 45 -45h45v282h280v-377q0 -77 -53 -131q-53 -55 -131 -55h-283q-75 0 -129 55q-55 54 -55 129z" />
    <glyph glyph-name="D" unicode="D" horiz-adv-x="737" 
d="M0 0v1481h467q77 0 131 -54q53 -54 53 -131v-1132q0 -73 -57 -120q-53 -44 -127 -44h-467zM281 281h57q33 0 33 32v850q0 37 -37 37h-53v-919z" />
    <glyph glyph-name="E" unicode="E" horiz-adv-x="577" 
d="M0 0v1481h520v-279h-239v-332h239v-243h-239v-346h239v-281h-520z" />
    <glyph glyph-name="F" unicode="F" horiz-adv-x="573" 
d="M0 0v1481h520v-281h-237v-428h235v-244h-235v-528h-283z" />
    <glyph glyph-name="G" unicode="G" horiz-adv-x="735" 
d="M0 186v1110q0 76 54 130q55 55 132 55h465v-510h-282v229h-43q-45 0 -45 -45v-829q0 -45 45 -45h43v350h-56v250h338v-881h-465q-78 0 -132 54t-54 132z" />
    <glyph glyph-name="H" unicode="H" horiz-adv-x="737" 
d="M0 0v1481h281v-604h90v604h280v-1481h-280v598h-90v-598h-281z" />
    <glyph glyph-name="I" unicode="I" horiz-adv-x="364" 
d="M0 0v1481h281v-1481h-281z" />
    <glyph glyph-name="J" unicode="J" horiz-adv-x="466" 
d="M-65 90q166 83 166 232v878h-152l39 281h396v-1248q0 -137 -114 -269q-104 -120 -218 -150z" />
    <glyph glyph-name="K" unicode="K" horiz-adv-x="716" 
d="M0 0v1481h283v-504l100 504h299l-170 -613l184 -868h-317l-96 641v-641h-283z" />
    <glyph glyph-name="L" unicode="L" horiz-adv-x="512" 
d="M0 0v1481h283v-1200h194v-281h-477z" />
    <glyph glyph-name="M" unicode="M" horiz-adv-x="1107" 
d="M0 0v1481h449l63 -752l61 752h449v-1481h-281l-2 936l-94 -936h-266l-100 932l2 -932h-281z" />
    <glyph glyph-name="N" unicode="N" horiz-adv-x="845" 
d="M0 0v1481h379l102 -779v779h279v-1481h-344l-135 844v-844h-281z" />
    <glyph glyph-name="O" unicode="O" horiz-adv-x="737" 
d="M0 164v1132q0 77 55 131q54 54 131 54h281q77 0 131 -54q53 -54 53 -131v-1132q0 -73 -57 -120q-53 -44 -127 -44h-281q-186 0 -186 164zM281 313q0 -32 34 -32h21q33 0 33 32v850q0 37 -37 37h-15q-36 0 -36 -37v-850z" />
    <glyph glyph-name="P" unicode="P" horiz-adv-x="706" 
d="M0 0v1481h467q77 0 132 -54q54 -54 54 -131v-667q0 -81 -56 -135q-55 -52 -132 -52h-182v-442h-283zM283 686h55q33 0 33 33v444q0 37 -37 37h-51v-514z" />
    <glyph glyph-name="Q" unicode="Q" horiz-adv-x="731" 
d="M0 162v1134q0 77 54 131t130 54h281q77 0 131 -54q55 -54 55 -131v-1134q0 -70 -55 -115h61v-237h-387v190h-86q-74 0 -127 44q-57 47 -57 118zM283 313q0 -32 32 -32h21q35 0 35 32v850q0 37 -39 37h-13q-36 0 -36 -37v-850z" />
    <glyph glyph-name="R" unicode="R" horiz-adv-x="731" 
d="M0 0v1481h467q77 0 132 -54q54 -54 54 -131v-456q0 -60 -47 -111q-46 -48 -100 -53q49 -5 97 -54q50 -53 50 -110v-512h-282v514q0 41 -33 41h-55v-555h-283zM283 801h55q33 0 33 33v329q0 37 -37 37h-51v-399z" />
    <glyph glyph-name="S" unicode="S" horiz-adv-x="735" 
d="M0 0v512h281v-231h90v319h-371v696q0 77 55 131q54 54 129 54h467v-510h-280v229h-90v-319h370v-697q0 -76 -54 -130t-130 -54h-467z" />
    <glyph glyph-name="T" unicode="T" horiz-adv-x="575" 
d="M-47 1202v279h584v-279h-152v-1202h-282v1202h-150z" />
    <glyph glyph-name="U" unicode="U" horiz-adv-x="737" 
d="M0 188v1293h281v-1159q0 -37 38 -37h50v1196h282v-1481h-463q-76 0 -132 56t-56 132z" />
    <glyph glyph-name="V" unicode="V" horiz-adv-x="724" 
d="M-6 643v838h281v-928q0 -89 10 -153q12 -74 37 -101q22 27 32 99q9 59 9 153v930h282v-834q-1 -247 -37 -369q-18 -61 -52 -130q-24 -48 -83 -148h-307l-74 143q-35 72 -53 129q-45 138 -45 371z" />
    <glyph glyph-name="W" unicode="W" horiz-adv-x="1110" 
d="M0 188v1293h283v-1159q0 -37 36 -37h15q39 0 39 37v1159h280v-1159q0 -37 39 -37h13q36 0 36 37v1159h283v-1295q0 -78 -56 -132t-134 -54h-152q-118 0 -170 104q-52 -104 -170 -104h-154q-76 0 -132 56t-56 132z" />
    <glyph glyph-name="X" unicode="X" horiz-adv-x="688" 
d="M-51 0l147 760l-145 721h299l47 -412l55 412h299l-143 -719l146 -762h-299l-50 377l-8 108l-8 -106l-41 -379h-299z" />
    <glyph glyph-name="Y" unicode="Y" horiz-adv-x="700" 
d="M-16 682v799h283v-768q0 -46 44 -46t44 46v768h282v-799q0 -102 -58 -200q-48 -82 -128 -148v-334h-281v334q-71 54 -123 141q-63 105 -63 207z" />
    <glyph glyph-name="Z" unicode="Z" horiz-adv-x="538" 
d="M-61 0l213 1202h-178v279h516l-203 -1198h209v-283h-557z" />
    <glyph glyph-name="bracketleft" unicode="[" horiz-adv-x="423" 
d="M0 -207v1897h348v-117h-170v-1663h170v-117h-348z" />
    <glyph glyph-name="backslash" unicode="\" horiz-adv-x="555" 
d="M0 1481h80l395 -1479h-78z" />
    <glyph glyph-name="bracketright" unicode="]" horiz-adv-x="423" 
d="M0 -90h170v1663h-170v117h348v-1897h-348v117z" />
    <glyph glyph-name="asciicircum" unicode="^" horiz-adv-x="798" 
d="M0 883l283 598h166l274 -598h-213l-148 366l-147 -366h-215z" />
    <glyph glyph-name="underscore" unicode="_" horiz-adv-x="1097" 
d="M-61 -141h1206v-92h-1206v92z" />
    <glyph glyph-name="grave" unicode="`" horiz-adv-x="1024" 
 />
    <glyph glyph-name="a" unicode="a" horiz-adv-x="612" 
d="M-16 172v389q0 68 53 117q52 49 123 49l131 2v145q0 11 -6 19q-8 10 -22 10h-29v-121h-207v402h338q68 0 122 -70q52 -66 52 -141v-973h-391q-68 0 -117 55q-47 51 -47 117zM234 242h57v276h-37q-20 -2 -20 -33v-243z" />
    <glyph glyph-name="b" unicode="b" 
d="M0 0v1481h250v-297h133q71 0 123 -50q53 -51 53 -118v-844q0 -66 -46 -117q-48 -55 -118 -55h-395zM250 242h67v703q-1 6 -2 11q-5 17 -18 17h-47v-731z" />
    <glyph glyph-name="c" unicode="c" horiz-adv-x="622" 
d="M0 156v872q0 156 156 156h403v-430h-242v190h-36q-29 0 -29 -29v-645q0 -28 29 -28h36v227h242v-311q0 -158 -153 -158h-250q-156 0 -156 156z" />
    <glyph glyph-name="d" unicode="d" 
d="M0 172v846q0 67 53 117q52 49 123 49h135v297h248v-1481h-395q-68 0 -117 55q-47 51 -47 117zM252 242h57v731h-37q-20 0 -20 -33v-698z" />
    <glyph glyph-name="e" unicode="e" 
d="M0 139v889q0 156 156 156h247q156 0 156 -156v-512h-307v-256q0 -20 18 -20h17q20 0 20 20v203h252v-324q0 -139 -156 -139h-247q-156 0 -156 139zM252 729h55v193q0 22 -22 22h-11q-22 0 -22 -22v-193z" />
    <glyph glyph-name="f" unicode="f" horiz-adv-x="440" 
d="M-30 971v213h66v127q0 170 157 170h203v-209h-59q-37 0 -37 -41v-47h96v-213h-96v-971h-264v971h-66z" />
    <glyph glyph-name="g" unicode="g" 
d="M0 170v844q0 65 47 116q48 54 117 54h395v-1321q0 -137 -151 -137h-388v213h291v61h-135q-70 0 -123 51t-53 119zM252 239q1 -6 2 -11q6 -15 18 -15h37v731h-57v-705z" />
    <glyph glyph-name="h" unicode="h" 
d="M0 0v1481h250v-297h133q72 0 124 -50q52 -49 52 -118v-1016h-252v942q0 33 -20 33h-37v-975h-250z" />
    <glyph glyph-name="i" unicode="i" horiz-adv-x="325" 
d="M0 0v1184h252l-2 -1184h-250zM0 1229v252h250v-252h-250z" />
    <glyph glyph-name="j" unicode="j" horiz-adv-x="342" 
d="M-108 -106q125 57 125 176v1114h250v-1123q0 -131 -74 -246q-71 -111 -180 -161zM15 1229v252h252v-252h-252z" />
    <glyph glyph-name="k" unicode="k" horiz-adv-x="632" 
d="M0 0v1481h250v-664l98 367h260l-147 -500l149 -684h-274l-86 442v-442h-250z" />
    <glyph glyph-name="l" unicode="l" horiz-adv-x="325" 
d="M0 0v1481h252v-1481h-252z" />
    <glyph glyph-name="m" unicode="m" horiz-adv-x="944" 
d="M0 0v1184h354q53 0 86 -51v51h269q63 0 112 -49q49 -50 49 -117v-1018h-254v952q0 21 -20 23h-39v-975h-250v946q0 27 -20 29h-37v-975h-250z" />
    <glyph glyph-name="n" unicode="n" 
d="M12 0v1184h383q71 0 123 -49q53 -50 53 -117v-1018h-252v942q0 33 -20 33h-37v-975h-250z" />
    <glyph glyph-name="o" unicode="o" 
d="M0 139v891q0 154 156 154h247q156 0 156 -154v-891q0 -139 -156 -139h-247h-7q-56 0 -97 30q-52 38 -52 109zM252 260q0 -18 18 -18h19q18 0 18 18v664q0 22 -22 22h-11q-22 0 -22 -22v-664z" />
    <glyph glyph-name="p" unicode="p" 
d="M0 -274v1458h395q70 0 118 -54q46 -50 46 -116v-844q0 -68 -52 -119t-124 -51h-133v-274h-250zM250 213h37q13 0 18 10q2 6 2 21v700h-57v-731z" />
    <glyph glyph-name="q" unicode="q" 
d="M0 170v844q0 65 47 116q48 54 117 54h395v-1458h-248v274h-135q-70 0 -123 51t-53 119zM252 239q1 -6 2 -11q6 -15 18 -15h37v731h-57v-705z" />
    <glyph glyph-name="r" unicode="r" horiz-adv-x="446" 
d="M0 0v1184h264v-82q24 82 92 82h64v-213h-31q-125 0 -125 -144v-827h-264z" />
    <glyph glyph-name="s" unicode="s" horiz-adv-x="636" 
d="M0 0v426h252v-184h57v241h-309v545q0 156 158 156h405v-404h-254v164h-57v-221h311v-567q0 -63 -46 -110q-47 -46 -111 -46h-406z" />
    <glyph glyph-name="t" unicode="t" horiz-adv-x="423" 
d="M-28 969v215h45v162l264 77v-239h97v-215h-97v-713q0 -41 37 -41h60v-215h-203q-158 0 -158 172v797h-45z" />
    <glyph glyph-name="u" unicode="u" 
d="M0 168v1016h252v-940q0 -33 20 -33h37v973h250v-1184h-383q-71 0 -123 49q-53 50 -53 119z" />
    <glyph glyph-name="v" unicode="v" horiz-adv-x="638" 
d="M-4 522v662h248v-733q0 -166 41 -209q35 43 35 207v735h249v-658q-1 -200 -32 -300q-15 -50 -45 -106q-20 -38 -70 -120h-281l-62 116q-30 58 -46 105q-37 112 -37 301z" />
    <glyph glyph-name="w" unicode="w" horiz-adv-x="944" 
d="M0 168v1016h252v-940q0 -31 29 -31q30 0 30 29v942h248v-942q0 -29 31 -29q26 0 26 31v940h252v-1016q0 -67 -58 -118q-56 -50 -128 -50h-100q-93 0 -146 80q-48 -80 -145 -80h-115q-71 0 -123 50q-53 50 -53 118z" />
    <glyph glyph-name="x" unicode="x" horiz-adv-x="575" 
d="M-61 0l129 610l-127 574h258l43 -340l43 340h260l-125 -572l127 -612h-260l-45 412l-43 -412h-260z" />
    <glyph glyph-name="y" unicode="y" 
d="M0 170v1014h252v-940q0 -15 2 -21q5 -10 18 -10h39v971h250v-1319q0 -139 -153 -139h-388v213h291v61h-135q-70 0 -123 51t-53 119z" />
    <glyph glyph-name="z" unicode="z" horiz-adv-x="454" 
d="M-55 0l182 971h-164v213h451l-176 -967h180v-217h-473z" />
    <glyph glyph-name="braceleft" unicode="{" horiz-adv-x="1024" 
 />
    <glyph glyph-name="bar" unicode="|" horiz-adv-x="1024" 
 />
    <glyph glyph-name="braceright" unicode="}" horiz-adv-x="1024" 
 />
    <glyph glyph-name="asciitilde" unicode="~" horiz-adv-x="1706" 
 />
    <glyph glyph-name="uni00A0" unicode="&#xa0;" horiz-adv-x="317" 
 />
    <glyph glyph-name="dieresis" unicode="&#xa8;" horiz-adv-x="1024" 
 />
    <glyph glyph-name="copyright" unicode="&#xa9;" horiz-adv-x="997" 
d="M0 203v1054q0 71 51 122q50 51 121 51h440q71 0 122 -51q50 -51 50 -122v-1054q0 -67 -53 -111q-50 -41 -119 -41h-440q-69 0 -119 41q-53 44 -53 111zM84 201q0 -66 88 -66h444q84 0 84 70v1057q0 84 -90 84h-442q-84 0 -84 -91v-1054zM174 377v729q0 127 127 127h313
v-369h-196v172h-25q-22 0 -22 -22v-545q0 -25 22 -25h25v187h196v-254q0 -129 -127 -129h-186q-127 0 -127 129z" />
    <glyph glyph-name="uni00AD" unicode="&#xad;" horiz-adv-x="462" 
d="M0 590v235h391v-235h-391z" />
    <glyph glyph-name="registered" unicode="&#xae;" horiz-adv-x="780" 
d="M65 834q0 135 96 231t230 96q135 0 231 -96t96 -231q0 -134 -96 -230t-231 -96q-134 0 -230 96t-96 230zM145 834q0 -113 72 -188q71 -75 174 -75q104 0 175 75q72 75 72 188t-72 189q-71 75 -175 75q-103 0 -174 -75q-72 -76 -72 -189zM266 651v371h137q137 0 137 -111
q0 -91 -98 -98l100 -162h-69l-97 160h-41v-160h-69zM335 862h62q74 0 74 56q0 51 -74 51h-62v-107z" />
    <glyph glyph-name="acute" unicode="&#xb4;" horiz-adv-x="1024" 
 />
    <glyph glyph-name="paragraph" unicode="&#xb6;" horiz-adv-x="1024" 
d="M93 1086q0 157 107.5 253t285.5 96h443v-70h-127v-1365h-82v1365h-166v-1365h-84v738q-174 8 -275.5 102.5t-101.5 245.5z" />
    <glyph glyph-name="onequarter" unicode="&#xbc;" 
d="M-20 1343q8 32 15 85q5 46 5 65h148v-784h-148v634h-20zM-18 2l395 1479h82l-397 -1479h-80zM207 117v157l97 490h233v-512h37v-137h-37v-133h-147v135h-183zM340 250l50 2v340z" />
    <glyph glyph-name="onehalf" unicode="&#xbd;" horiz-adv-x="684" 
d="M-20 1343q8 32 15 85q5 46 5 65h148v-784h-148v634h-20zM-18 2l395 1479h82l-397 -1479h-80zM271 -18v120q0 46 18 87q7 15 18 33l152 233q15 17 15 45v116h-48v-135h-149v176q0 107 102 107h133q107 0 111 -107v-170q0 -50 -25 -90l-120 -178q-32 -51 -35 -90h180v-147
h-352z" />
    <glyph glyph-name="threequarters" unicode="&#xbe;" horiz-adv-x="786" 
d="M-20 817v180h150v-139h47v166q0 13 -3 18q-3 7 -16 7h-104v131h104q10 0 15 10q4 8 4 18v135h-47v-110h-150v151q0 109 102 109h134q110 0 110 -109v-176q0 -71 -59 -94q28 -11 45 -43q14 -26 14 -53v-201q0 -108 -110 -108h-134q-102 0 -102 108zM136 2l395 1479h82
l-397 -1479h-80zM361 117v157l96 490h234v-512h37v-137h-37v-133h-148v135h-182zM494 250l49 2v340z" />
    <glyph glyph-name="Agrave" unicode="&#xc0;" horiz-adv-x="737" 
d="M0 -8v1311q0 170 154 170h313q184 0 184 -170v-1311h-280v557h-88v-557h-283zM69 1767h217l115 -247h-119zM283 793h88v399h-88v-399z" />
    <glyph glyph-name="Aacute" unicode="&#xc1;" horiz-adv-x="737" 
d="M0 0v1311q0 170 154 170h313q184 0 184 -170v-1311h-280v555h-90v-555h-281zM236 1520l114 247h217l-215 -247h-116zM281 801h90v399h-90v-399z" />
    <glyph glyph-name="Acircumflex" unicode="&#xc2;" horiz-adv-x="700" 
d="M0 0v1311q0 170 154 170h313q184 0 184 -170v-1311h-280v555h-90v-555h-281zM48 1520l215 247h125l215 -247h-217l-59 82l-62 -82h-217zM281 801h90v399h-90v-399z" />
    <glyph glyph-name="Atilde" unicode="&#xc3;" horiz-adv-x="737" 
d="M0 0v1311q0 170 154 170h313q184 0 184 -170v-1311h-280v555h-90v-555h-281zM63 1724q56 26 103 32q61 9 123 -9q147 -44 225 -2l66 -139q-114 -59 -228 -25q-140 42 -223 4zM281 801h90v399h-90v-399z" />
    <glyph glyph-name="Egrave" unicode="&#xc8;" horiz-adv-x="577" 
d="M0 0v1481h520v-279h-239v-332h239v-243h-239v-346h239v-281h-520zM26 1767h217l115 -247h-119z" />
    <glyph glyph-name="Eacute" unicode="&#xc9;" horiz-adv-x="577" 
d="M0 0v1481h520v-279h-239v-332h239v-243h-239v-346h239v-281h-520zM154 1520l114 247h217l-215 -247h-116z" />
    <glyph glyph-name="Ecircumflex" unicode="&#xca;" horiz-adv-x="577" 
d="M-19 1520l215 247h125l215 -247h-217l-59 82l-62 -82h-217zM0 0v1481h521v-279h-240v-332h240v-243h-240v-346h240v-281h-521z" />
    <glyph glyph-name="Igrave" unicode="&#xcc;" horiz-adv-x="364" 
d="M0 1767h217l115 -247h-117zM55 0v1481h281v-1481h-281z" />
    <glyph glyph-name="Iacute" unicode="&#xcd;" horiz-adv-x="364" 
d="M0 0v1481h281v-1481h-281zM10 1520l115 247h217l-215 -247h-117z" />
    <glyph glyph-name="Ograve" unicode="&#xd2;" horiz-adv-x="724" 
d="M0 164v1132q0 77 55 131q54 54 131 54h281q77 0 131 -54q53 -54 53 -131v-1132q0 -73 -57 -120q-53 -44 -127 -44h-281q-186 0 -186 164zM72 1767h217l115 -247h-117zM281 313q0 -32 34 -32h21q33 0 33 32v850q0 37 -37 37h-15q-36 0 -36 -37v-850z" />
    <glyph glyph-name="Oacute" unicode="&#xd3;" horiz-adv-x="724" 
d="M0 164v1132q0 77 55 131q54 54 131 54h281q77 0 131 -54q53 -54 53 -131v-1132q0 -73 -57 -120q-53 -44 -127 -44h-281q-186 0 -186 164zM236 1520l114 247h217l-215 -247h-116zM281 313q0 -32 34 -32h21q33 0 33 32v850q0 37 -37 37h-15q-36 0 -36 -37v-850z" />
    <glyph glyph-name="Ocircumflex" unicode="&#xd4;" horiz-adv-x="737" 
d="M-9 164v1132q0 77 55 131q54 54 131 54h281q77 0 131 -54q53 -54 53 -131v-1132q0 -73 -57 -120q-53 -44 -127 -44h-281q-186 0 -186 164zM39 1520l215 247h125l215 -247h-217l-59 82l-62 -82h-217zM282 313q0 -32 34 -32h21q33 0 33 32v850q0 37 -37 37h-15
q-36 0 -36 -37v-850z" />
    <glyph glyph-name="Otilde" unicode="&#xd5;" horiz-adv-x="724" 
d="M0 164v1132q0 77 55 131q54 54 131 54h281q77 0 131 -54q53 -54 53 -131v-1132q0 -73 -57 -120q-53 -44 -127 -44h-281q-186 0 -186 164zM68 1724q55 26 102 32q60 9 121 -9q148 -43 227 -2l64 -139q-110 -59 -228 -25q-140 42 -223 4zM281 313q0 -32 34 -32h21
q33 0 33 32v850q0 37 -37 37h-15q-36 0 -36 -37v-850z" />
    <glyph glyph-name="Ugrave" unicode="&#xd9;" horiz-adv-x="737" 
d="M0 188v1293h281v-1159q0 -37 38 -37h50v1196h282v-1481h-463q-76 0 -132 56t-56 132zM81 1767h217l115 -247h-119z" />
    <glyph glyph-name="Uacute" unicode="&#xda;" horiz-adv-x="737" 
d="M0 188v1293h281v-1159q0 -37 38 -37h50v1196h282v-1481h-463q-76 0 -132 56t-56 132zM193 1520l114 247h217l-215 -247h-116z" />
    <glyph glyph-name="Yacute" unicode="&#xdd;" horiz-adv-x="700" 
d="M-16 682v799h283v-768q0 -46 44 -46t44 46v768h282v-799q0 -102 -58 -200q-48 -82 -128 -148v-334h-281v334q-71 54 -123 141q-63 105 -63 207zM236 1520l115 247h217l-215 -247h-117z" />
    <glyph glyph-name="agrave" unicode="&#xe0;" horiz-adv-x="612" 
d="M-16 172v389q0 68 53 117q52 49 123 49l131 2v145q0 11 -6 19q-8 10 -22 10h-29v-121h-207v402h338q68 0 122 -70q52 -66 52 -141v-973h-391q-68 0 -117 55q-47 51 -47 117zM76 1505h217l115 -250h-119zM234 242h57v276h-37q-20 -2 -20 -33v-243z" />
    <glyph glyph-name="aacute" unicode="&#xe1;" horiz-adv-x="612" 
d="M-16 172v389q0 68 53 117q52 49 123 49l131 2v145q0 11 -6 19q-8 10 -22 10h-29v-121h-207v402h338q68 0 122 -70q52 -66 52 -141v-973h-391q-68 0 -117 55q-47 51 -47 117zM148 1255l115 250h217l-215 -250h-117zM234 242h57v276h-37q-20 -2 -20 -33v-243z" />
    <glyph glyph-name="acircumflex" unicode="&#xe2;" horiz-adv-x="612" 
d="M-16 172v389q0 68 53 117q52 49 123 49l131 2v145q0 11 -6 19q-8 10 -22 10h-29v-121h-207v402h338q68 0 122 -70q52 -66 52 -141v-973h-391q-68 0 -117 55q-47 51 -47 117zM-16 1257l215 247h125l215 -247h-217l-59 82l-62 -82h-217zM234 242h57v276h-37q-20 -2 -20 -33
v-243z" />
    <glyph glyph-name="atilde" unicode="&#xe3;" horiz-adv-x="612" 
d="M-16 172v389q0 68 53 117q52 49 123 49l131 2v145q0 11 -6 19q-8 10 -22 10h-29v-121h-207v402h338q68 0 122 -70q52 -66 52 -141v-973h-391q-68 0 -117 55q-47 51 -47 117zM13 1462q56 25 102 32q61 9 123 -9q147 -44 225 -2l66 -140q-114 -58 -228 -24q-140 41 -223 4z
M234 242h57v276h-37q-20 -2 -20 -33v-243z" />
    <glyph glyph-name="egrave" unicode="&#xe8;" 
d="M0 139v889q0 156 156 156h247q156 0 156 -156v-512h-307v-256q0 -20 18 -20h17q20 0 20 20v203h252v-324q0 -139 -156 -139h-247q-156 0 -156 139zM76 1505h217l115 -250h-119zM252 729h55v193q0 22 -22 22h-11q-22 0 -22 -22v-193z" />
    <glyph glyph-name="eacute" unicode="&#xe9;" 
d="M0 139v889q0 156 156 156h247q156 0 156 -156v-512h-307v-256q0 -20 18 -20h17q20 0 20 20v203h252v-324q0 -139 -156 -139h-247q-156 0 -156 139zM147 1255l115 250h217l-215 -250h-117zM252 729h55v193q0 22 -22 22h-11q-22 0 -22 -22v-193z" />
    <glyph glyph-name="ecircumflex" unicode="&#xea;" 
d="M-8 139v889q0 156 156 156h247q156 0 156 -156v-512h-307v-256q0 -20 18 -20h17q20 0 20 20v203h252v-324q0 -139 -156 -139h-247q-156 0 -156 139zM-6 1257l215 247h125l215 -247h-217l-59 82l-62 -82h-217zM252 729h55v193q0 22 -22 22h-11q-22 0 -22 -22v-193z" />
    <glyph glyph-name="igrave" unicode="&#xec;" horiz-adv-x="325" 
d="M-95 1505h217l115 -250h-119zM0 0v1184h252l-2 -1184h-250z" />
    <glyph glyph-name="iacute" unicode="&#xed;" horiz-adv-x="325" 
d="M0 0v1184h252l-2 -1184h-250zM24 1255l115 250h217l-215 -250h-117z" />
    <glyph glyph-name="ograve" unicode="&#xf2;" 
d="M0 139v891q0 154 156 154h247q156 0 156 -154v-891q0 -139 -156 -139h-247q-60 -2 -104 30q-52 38 -52 109zM66 1505h217l115 -250h-119zM252 260q0 -18 18 -18h19q18 0 18 18v664q0 22 -22 22h-11q-22 0 -22 -22v-664z" />
    <glyph glyph-name="oacute" unicode="&#xf3;" 
d="M0 139v891q0 154 156 154h247q156 0 156 -154v-891q0 -139 -156 -139h-247q-60 -2 -104 30q-52 38 -52 109zM178 1255l115 250h217l-215 -250h-117zM252 260q0 -18 18 -18h19q18 0 18 18v664q0 22 -22 22h-11q-22 0 -22 -22v-664z" />
    <glyph glyph-name="ocircumflex" unicode="&#xf4;" 
d="M-3 139v891q0 154 156 154h247q156 0 156 -154v-891q0 -139 -156 -139h-247q-60 -2 -104 30q-52 38 -52 109zM-1 1257l215 247h125l215 -247h-217l-59 82l-62 -82h-217zM252 260q0 -18 18 -18h19q18 0 18 18v664q0 22 -22 22h-11q-22 0 -22 -22v-664z" />
    <glyph glyph-name="otilde" unicode="&#xf5;" 
d="M0 139v891q0 154 156 154h247q156 0 156 -154v-891q0 -139 -156 -139h-247q-60 -2 -104 30q-52 38 -52 109zM12 1462q56 25 103 32q61 9 123 -9q146 -44 225 -2l65 -140q-113 -58 -227 -24q-140 41 -223 4zM252 260q0 -18 18 -18h19q18 0 18 18v664q0 22 -22 22h-11
q-22 0 -22 -22v-664z" />
    <glyph glyph-name="divide" unicode="&#xf7;" horiz-adv-x="1706" 
 />
    <glyph glyph-name="ugrave" unicode="&#xf9;" horiz-adv-x="582" 
 />
    <glyph glyph-name="uacute" unicode="&#xfa;" horiz-adv-x="580" 
 />
    <glyph glyph-name="yacute" unicode="&#xfd;" horiz-adv-x="629" 
 />
    <glyph glyph-name="uni2000" unicode="&#x2000;" horiz-adv-x="883" 
 />
    <glyph glyph-name="uni2001" unicode="&#x2001;" horiz-adv-x="1767" 
 />
    <glyph glyph-name="uni2002" unicode="&#x2002;" horiz-adv-x="883" 
 />
    <glyph glyph-name="uni2003" unicode="&#x2003;" horiz-adv-x="1767" 
 />
    <glyph glyph-name="uni2004" unicode="&#x2004;" horiz-adv-x="589" 
 />
    <glyph glyph-name="uni2005" unicode="&#x2005;" horiz-adv-x="441" 
 />
    <glyph glyph-name="uni2006" unicode="&#x2006;" horiz-adv-x="294" 
 />
    <glyph glyph-name="uni2007" unicode="&#x2007;" horiz-adv-x="294" 
 />
    <glyph glyph-name="uni2008" unicode="&#x2008;" horiz-adv-x="220" 
 />
    <glyph glyph-name="uni2009" unicode="&#x2009;" horiz-adv-x="353" 
 />
    <glyph glyph-name="uni200A" unicode="&#x200a;" horiz-adv-x="98" 
 />
    <glyph glyph-name="uni2010" unicode="&#x2010;" horiz-adv-x="462" 
d="M0 590v235h391v-235h-391z" />
    <glyph glyph-name="uni2011" unicode="&#x2011;" horiz-adv-x="462" 
d="M0 590v235h391v-235h-391z" />
    <glyph glyph-name="figuredash" unicode="&#x2012;" horiz-adv-x="462" 
d="M0 590v235h391v-235h-391z" />
    <glyph glyph-name="endash" unicode="&#x2013;" horiz-adv-x="1095" 
d="M0 590v235h1024v-235h-1024z" />
    <glyph glyph-name="emdash" unicode="&#x2014;" horiz-adv-x="2119" 
d="M0 590v235h2048v-235h-2048z" />
    <glyph glyph-name="quoteleft" unicode="&#x2018;" horiz-adv-x="188" 
d="M0 1268v209q0 4 4 4h100q7 0 7 -4v-359q-34 -2 -69 35q-42 45 -42 115z" />
    <glyph glyph-name="quoteright" unicode="&#x2019;" horiz-adv-x="188" 
d="M0 1118v359q0 4 4 4h100q7 0 7 -4v-209q0 -70 -43 -115q-35 -37 -68 -35z" />
    <glyph glyph-name="quotedblleft" unicode="&#x201c;" horiz-adv-x="321" 
d="M0 1270v207q0 4 4 4h100q7 0 7 -4l-2 -359q-33 -2 -67 35q-42 46 -42 117zM133 1270v207q0 4 4 4h101q6 0 6 -4v-359q-34 -2 -69 35q-42 45 -42 117z" />
    <glyph glyph-name="quotedblright" unicode="&#x201d;" horiz-adv-x="321" 
d="M0 1118v359q0 4 4 4h100q7 0 7 -4v-207q0 -72 -43 -117q-34 -37 -68 -35zM133 1118v359q0 4 4 4h101q6 0 6 -4v-207q0 -72 -43 -117q-34 -37 -68 -35z" />
    <glyph glyph-name="ellipsis" unicode="&#x2026;" horiz-adv-x="919" 
d="M0 4v234q0 6 4 6h197q6 0 6 -6v-234q0 -4 -6 -4h-197q-4 0 -4 4zM322 4v234q0 6 4 6h196q4 0 4 -6v-234q0 -4 -4 -4h-196q-4 0 -4 4zM639 4v234q0 6 4 6h197q4 0 4 -6v-234q0 -4 -4 -4h-197q-4 0 -4 4z" />
    <glyph glyph-name="uni202F" unicode="&#x202f;" horiz-adv-x="353" 
 />
    <glyph glyph-name="uni205F" unicode="&#x205f;" horiz-adv-x="441" 
 />
    <glyph glyph-name="uni25FC" unicode="&#x25fc;" horiz-adv-x="1185" 
d="M0 0v1185h1185v-1185h-1185z" />
  </font>
</defs>
</svg>
